<svg xmlns="http://www.w3.org/2000/svg" viewBox="0 0 1762.64 627.12"><defs><style>.cls-1{fill:#285e9c;}.cls-2{fill:#701c29;}</style></defs><g id="Layer_2" data-name="Layer 2"><g id="Layer_1-2" data-name="Layer 1"><path class="cls-1" d="M606,39.58S467.19-32.82,257.12,18.22,15,214,15,214-52.64,424.11,99.28,539.23s414.19,87.82,490.15,66.46,174.46-79.52,204.13-134.11c0,0-7.12,2.37-60.53,40.35S504,663.84,279.67,555.84c0,0-131.74-55.78-146-226.68S235.76,83.49,235.76,83.49,347.32-3.15,561,47.89c0,0,45.09,10.68,74.77,34.41S658.26,131,658.26,131s15.43,27.3,20.18,9.5,15.43-55.78,67.65-80.71,41.54-26.11,41.54-26.11-9.5-14.24-34.42-5.93c0,0-9.49,20.18-51,24.92S606,39.58,606,39.58Z"/><path class="cls-2" d="M491.58,316.71c0,72.42-51.12,123.54-122.82,123.54-72.07,0-123.19-51.12-123.19-123.18,0-72.42,51.48-123.89,124.25-123.89C440.11,193.18,491.58,245.72,491.58,316.71ZM307,320.26c0,70.65,21.65,108.63,61.41,108.63,40.47,0,61.77-38,61.77-109.69,0-72.42-22.36-114.66-60.7-114.66C328.64,204.54,307,245,307,320.26Z"/><path class="cls-2" d="M491.94,433.51V425c24.5-2.84,29.47-6.75,29.82-24.85V231.87c-.35-18.1-7.1-23.43-29.82-24.85V198.5H613.35V207c-29.46,1.07-34.43,5.33-35.14,32.31v164c0,14.91,6.39,19.53,27.33,19.53,27.34,0,46.86-6,61.06-19.17,12.07-11,18.81-22,30.53-49h9.94l-14.2,78.81Z"/><path class="cls-2" d="M955.57,316.71c0,72.42-51.12,123.54-122.83,123.54-72.07,0-123.19-51.12-123.19-123.18,0-72.42,51.48-123.89,124.25-123.89C904.09,193.18,955.57,245.72,955.57,316.71ZM771,320.26c0,70.65,21.65,108.63,61.41,108.63,40.47,0,61.77-38,61.77-109.69,0-72.42-22.36-114.66-60.7-114.66C792.62,204.54,771,245,771,320.26Z"/><path class="cls-2" d="M985.74,396.94V232.23C969.41,212.35,963,207,956.28,207V198.5h73.13L1151.17,348V241.46c0-24.5-7.1-32-32.3-34.44V198.5h74.55V207c-22.37,3.55-27,8.17-27,28V439.9h-9.59L1001,250.33V390.55c.35,24.85,6.74,31.24,33,34.44v8.52h-78.8V425C980.07,422.15,985.39,417.53,985.74,396.94Z"/><path class="cls-2" d="M1188.09,433.51V425c25.2-2.13,32-7.1,32.3-24.85V231.87c-.71-18.1-7.81-23.43-32.3-24.85V198.5h121.76V207c-25.2.71-32.66,6.39-33,24.85V400.14c.35,18.1,7.1,23.43,33,24.85v8.52Z"/><path class="cls-2" d="M1431.26,433.51V425a97.67,97.67,0,0,1,11-1.07c12.07-1.06,16.69-4.26,16.69-11.36,0-7.81-4.26-20.59-16-47.57h-78.1l-5.32,13.85c-7.1,17.39-9.94,27-9.94,31.59,0,9.23,7.81,13.14,28.4,14.56v8.52h-70.65V425c16.69-3.2,21-8.17,34.08-40.83l77-190.63h9.94l77.38,182.82c18.82,43.67,22.72,48.64,38,48.64v8.52ZM1402.5,267l-32.66,84.48h67.81Z"/><path class="cls-2" d="M1543.08,433.51V425c24.49-2.84,29.46-6.75,29.82-24.85V231.87c-.36-18.1-7.1-23.43-29.82-24.85V198.5h121.41V207c-29.47,1.07-34.44,5.33-35.15,32.31v164c0,14.91,6.39,19.53,27.34,19.53,27.33,0,46.86-6,61.06-19.17,12.07-11,18.81-22,30.53-49h9.93L1744,433.51Z"/><path class="cls-1" d="M881.58,618.75c8.73-.89,11.5-4.63,11.7-15.48V526.18c-.4-12.46-3-15.13-16.25-16v-4.27h62.43c32.71,0,50.94,11.39,50.94,31.51,0,13.7-8.52,24.21-24.18,29.73-8.52,3-15.06,3.56-41.43,3.73v32.41c.4,13,2,14.59,17.05,16.2v4.27H877v-4.27C879,619.11,881,618.75,881.58,618.75Zm68-58.74c5.35-3.92,7.53-10.51,7.53-21.72,0-18.7-6.54-26.35-22.59-26.35-6.54,0-9.72,2-9.72,6.05v46.82C938.67,564.81,945,563.57,949.57,560Z"/><path class="cls-1" d="M1090.1,623.74l-40.23-54.66h-5.16v34.19c.4,12.63,2.18,14.41,17,16.2v4.27H996.15v-4.27c14.87-1.43,16.65-3.21,17.05-16.2V526.18c-.4-12.82-3.17-15.31-17.05-16v-4.27h62.64c35.67,0,54.7,10.86,54.7,31a25.2,25.2,0,0,1-8.72,19.58c-5.35,4.45-10.31,6.59-21.8,10l39,49.67c1.78,2.32,4.36,3.39,7.93,3.39v4.27Zm-18.83-64.45c6.35-3.74,9.12-10.5,9.12-21.72,0-18.33-7.33-25.81-25.17-25.81-5,0-7.93.89-9.12,2.67a13.88,13.88,0,0,0-1.39,4.63v44.51C1059.58,563.39,1066.12,562.32,1071.27,559.29Z"/><path class="cls-1" d="M1253.83,505.89V541h-4.76c-5-23.15-14.47-29.2-46-29.2-10.1,0-12.68,1.6-12.68,8.19v40.59c20.81.18,28.54-6.23,31.51-26.17h5v59.1h-5c-2.37-20.29-10.3-27.06-31.51-27.06v42.2c0,7.65,3.57,9.79,16,9.79,14.87,0,25.37-2.85,34.29-9.26,6.94-5,10.91-10,17-21.72h5.35l-7.73,36.32H1141.84v-4.27c13.87-1.07,16.65-3.21,17-12.47V522.62c-.39-9.26-4-11.93-17-12.46v-4.27Z"/><path class="cls-1" d="M1347.78,518.35c-6.94-6.41-15.07-9.79-24-9.79-13.08,0-21.21,6.58-21.21,17.44,0,8.55,4.37,12.82,20,19.76l28.55,12.82c12.48,5.52,21.21,18.69,21.21,31.69,0,22.07-19.43,36.85-48.17,36.85a76.78,76.78,0,0,1-25.17-4.27c-4.17-1.25-6.35-1.78-7.93-1.78-3.17,0-4.56,1.42-5.95,6h-5.55V584h5.55c3.37,12.1,5.95,18,11.5,24.39,7.13,8.54,16.65,13,28.14,13,14.87,0,24.38-7.83,24.38-19.76,0-9.25-4.75-14.06-21.6-21.18L1314.48,575c-23-10-33.1-21-33.1-36.14,0-22.07,16-35.6,42.41-35.6,7.73,0,13.88,1.06,22.8,3.91,4.16,1.25,6.34,1.78,8.12,1.78,3.57,0,4.76-1.24,6.35-5.87h5.75V541h-5.36C1357.29,529.56,1354.32,524.4,1347.78,518.35Z"/><path class="cls-1" d="M1460.16,518.35c-6.93-6.41-15.06-9.79-24-9.79-13.08,0-21.21,6.58-21.21,17.44,0,8.55,4.36,12.82,20,19.76l28.54,12.82c12.49,5.52,21.21,18.69,21.21,31.69,0,22.07-19.42,36.85-48.16,36.85a76.84,76.84,0,0,1-25.18-4.27c-4.16-1.25-6.34-1.78-7.93-1.78-3.17,0-4.55,1.42-5.94,6H1392V584h5.55c3.37,12.1,5.94,18,11.49,24.39,7.14,8.54,16.65,13,28.15,13,14.87,0,24.38-7.83,24.38-19.76,0-9.25-4.76-14.06-21.6-21.18L1426.86,575c-23-10-33.1-21-33.1-36.14,0-22.07,16.06-35.6,42.42-35.6,7.73,0,13.87,1.06,22.79,3.91,4.17,1.25,6.35,1.78,8.13,1.78,3.57,0,4.76-1.24,6.34-5.87h5.75V541h-5.35C1469.68,529.56,1466.7,524.4,1460.16,518.35Z"/><path class="cls-1" d="M1564.74,591.38V589c6.9-.8,8.3-1.9,8.4-7V534.57c-.1-5.09-2-6.6-8.4-7v-2.4h34.2v2.4c-8.3.3-9.7,1.5-9.9,9.11v46.2c0,4.2,1.8,5.5,7.7,5.5,7.7,0,13.2-1.7,17.2-5.4,3.4-3.1,5.3-6.2,8.6-13.8h2.8l-4,22.2Z"/><path class="cls-1" d="M1631.44,591.38V589c6.9-.8,8.3-1.9,8.4-7V534.57c-.1-5.09-2-6.6-8.4-7v-2.4h34.2v2.4c-8.3.3-9.7,1.5-9.9,9.11v46.2c0,4.2,1.8,5.5,7.7,5.5,7.7,0,13.2-1.7,17.2-5.4,3.4-3.1,5.3-6.2,8.6-13.8h2.8l-4,22.2Z"/><path class="cls-1" d="M1734.84,593.28c-20.4,0-34.7-14.2-34.7-34.4s14.6-35.21,34.1-35.21a37.74,37.74,0,0,1,15.1,3.5,13.79,13.79,0,0,0,4.5,1.3c2,0,2.9-1,4.4-4.5h2.6v22.91h-2.4c-3.4-7.4-5.7-10.7-10-14.51s-8.4-5.5-13-5.5c-11.8,0-18,10.7-18,31.11,0,9.9,1.3,16.9,4.2,22.1s9,8.5,15.5,8.5a25.42,25.42,0,0,0,8.8-1.7c4.9-2,8-4.3,13.7-10.4l3,2.5C1752.74,589.78,1746,593.28,1734.84,593.28Z"/></g></g></svg>